<svg xmlns="http://www.w3.org/2000/svg" width="160" height="160" viewBox="0 0 160 160" fill-rule="evenodd" xmlns:v="https://vecta.io/nano"><path fill="transparent" d="M0 0h160v160H0z"/><path d="M75.022 30.771c14.312-9.059 34.219-4.85 44.219 9.516 4.862 6.68 6.789 15.098 5.229 23.334-.642 3.843-2.11 7.503-4.312 10.798 3.211 5.948 4.22 12.811 3.027 19.49-1.376 7.961-6.147 15.007-13.027 19.307L84.93 129.229c-14.312 9.059-34.128 4.85-44.219-9.516-4.771-6.68-6.697-15.098-5.229-23.242.642-3.843 2.11-7.503 4.312-10.798-3.211-5.948-4.22-12.811-3.027-19.49 1.376-7.961 6.147-15.007 13.027-19.307zm33.852 16.105c-4.771-6.863-13.302-10.065-21.467-7.961-1.835.549-3.578 1.281-5.137 2.288L57.041 57.215c-4.128 2.562-7.064 6.863-7.89 11.621-.917 4.941.275 9.974 3.119 14 4.771 6.863 13.302 10.065 21.467 7.961 1.835-.458 3.578-1.19 5.137-2.196l9.633-6.131c.459-.275 1.009-.458 1.56-.641 2.477-.641 5.046.275 6.514 2.379.826 1.19 1.193 2.745.917 4.209s-1.101 2.654-2.385 3.477l-25.137 16.013c-.459.275-1.009.458-1.56.641-2.477.641-5.046-.366-6.514-2.471-.734-1.098-1.101-2.471-1.009-3.752l.092-.915-.917-.275c-3.578-1.098-6.881-2.745-9.908-4.941l-1.284-.915-.459 1.464-.55 2.379c-.826 4.941.275 9.974 3.211 14 4.771 6.863 13.302 10.065 21.467 7.961 1.835-.549 3.578-1.281 5.137-2.288l25.229-16.013c4.128-2.562 7.064-6.863 7.89-11.621.826-4.941-.275-9.974-3.211-14-4.771-6.863-13.302-10.065-21.467-7.961-1.835.549-3.578 1.281-5.137 2.288l-9.633 6.131c-.459.275-1.009.458-1.56.641-2.477.641-5.046-.275-6.514-2.379-.826-1.19-1.193-2.745-.917-4.209s1.101-2.654 2.385-3.477l25.137-16.013c.459-.275 1.009-.458 1.56-.641 2.477-.641 5.046.275 6.514 2.379.734 1.098 1.101 2.471 1.009 3.752l-.092.915.917.275c3.578 1.098 6.881 2.745 9.908 4.941l1.284.915.459-1.464c.275-.824.459-1.556.642-2.379.826-4.941-.275-9.974-3.211-14z" fill="#fff" fill-rule="nonzero"/></svg>