<svg xmlns="http://www.w3.org/2000/svg" width="160" height="160" viewBox="0 0 160 160" style="width:100%; height:auto;" fill-rule="evenodd" xmlns:v="https://vecta.io/nano"><path fill="transparent" d="M0 0h160v160H0z"/><path d="M75.909 34.417c13.198-8.388 31.558-4.49 40.78 8.812 4.484 6.185 6.261 13.98 4.823 21.605-.592 3.559-1.946 6.948-3.976 9.998 2.961 5.507 3.892 11.862 2.792 18.047-1.269 7.371-5.669 13.895-12.014 17.877l-23.266 14.827c-13.198 8.388-31.473 4.49-40.78-8.812a28.54 28.54 0 0 1-4.823-21.52c.592-3.559 1.946-6.948 3.976-9.998-2.961-5.507-3.892-11.862-2.792-18.047 1.269-7.371 5.669-13.895 12.014-17.877zm31.219 14.912c-4.399-6.354-12.268-9.32-19.798-7.371-1.692.508-3.3 1.186-4.738 2.118L59.327 58.903c-3.807 2.372-6.515 6.354-7.276 10.76-.846 4.575.254 9.235 2.877 12.963 4.399 6.354 12.268 9.32 19.798 7.371 1.692-.424 3.3-1.101 4.738-2.033l8.884-5.677c.423-.254.931-.424 1.438-.593 2.284-.593 4.653.254 6.007 2.203.761 1.101 1.1 2.542.846 3.897s-1.015 2.457-2.2 3.22l-23.182 14.827c-.423.254-.931.424-1.438.593-2.284.593-4.653-.339-6.007-2.288-.677-1.017-1.015-2.288-.931-3.474l.085-.847-.846-.254c-3.3-1.017-6.345-2.542-9.137-4.575l-1.184-.847-.423 1.356-.508 2.203c-.761 4.575.254 9.235 2.961 12.963 4.399 6.354 12.268 9.32 19.798 7.371 1.692-.508 3.3-1.186 4.738-2.118l23.266-14.827c3.807-2.372 6.515-6.354 7.276-10.76.761-4.575-.254-9.235-2.961-12.963-4.399-6.354-12.268-9.32-19.798-7.371-1.692.508-3.3 1.186-4.738 2.118l-8.884 5.677c-.423.254-.931.424-1.438.593-2.284.593-4.653-.254-6.007-2.203-.761-1.101-1.1-2.542-.846-3.897s1.015-2.457 2.2-3.22l23.182-14.827c.423-.254.931-.424 1.438-.593 2.284-.593 4.653.254 6.007 2.203.677 1.017 1.015 2.288.931 3.474l-.085.847.846.254c3.3 1.017 6.345 2.542 9.137 4.575l1.184.847.423-1.356c.254-.763.423-1.44.592-2.203.761-4.575-.254-9.235-2.961-12.963z" fill="#fff" fill-rule="nonzero"/></svg>