<svg xmlns="http://www.w3.org/2000/svg" width="160" height="160" viewBox="0 0 160 160" fill-rule="evenodd" xmlns:v="https://vecta.io/nano"><path fill="transparent" d="M0 0h160v160H0z"/><path d="M78.899 36.029c-25.861.819-33.547 19.237-35.309 29.215 2.295-3.698 9.528-11.813 20.176-11.813 12.41 0 21.858 13.809 27.623 18.119 7.004 5.237 21.077 12.151 39.552 6.545 14.732-4.47 21.564-20.062 23.059-27.459-7.126 9.658-17.935 15.46-31.306 8.621-9.208-4.709-16.093-24.106-43.796-23.228h0zm-36.59 43.822C16.448 80.67 8.761 99.088 7 109.065c2.295-3.698 9.528-11.813 20.176-11.813 12.41 0 21.858 13.809 27.623 18.119 7.004 5.237 21.077 12.151 39.552 6.545 14.732-4.47 21.564-20.062 23.059-27.459-7.126 9.658-17.935 15.46-31.306 8.621-9.208-4.709-16.093-24.106-43.796-23.228z" fill="#fff" fill-rule="nonzero"/></svg>