<svg xmlns="http://www.w3.org/2000/svg" width="160" height="160" viewBox="0 0  160 160" fill-rule="evenodd" xmlns:v="https://vecta.io/nano"><path fill="transparent" d="M0 0h160v160H0z"/><path d="M123.475 33c1.947 0 3.525 1.561 3.525 3.487v86.025c0 1.926-1.578 3.487-3.525 3.487h-86.95c-1.947 0-3.525-1.561-3.525-3.487V36.488C33 34.561 34.578 33 36.525 33h86.95zm-18.007 41.85c-2.241 0-4.364.237-6.369.711s-3.769 1.213-5.293 2.219-2.728 2.286-3.612 3.843-1.327 3.418-1.327 5.583c0 2.765.811 5.124 2.433 7.077s4.084 3.606 7.386 4.96l3.627 1.537c1.12.503 2.088 1.025 2.904 1.566s1.46 1.131 1.931 1.769.708 1.363.708 2.175c0 .599-.148 1.155-.443 1.668s-.742.957-1.342 1.334-1.346.672-2.241.885-1.941.319-3.14.319c-2.044 0-4.069-.353-6.074-1.058s-3.863-1.764-5.573-3.176v9.281c1.533.773 3.347 1.354 5.44 1.74s4.3.58 6.62.58c2.261 0 4.408-.213 6.443-.638s3.818-1.126 5.351-2.103 2.747-2.252 3.642-3.828 1.342-3.524 1.342-5.844c0-1.682-.256-3.156-.767-4.423s-1.248-2.393-2.211-3.379-2.118-1.871-3.465-2.654-2.865-1.523-4.555-2.219l-3.332-1.465c-.983-.474-1.818-.957-2.506-1.45s-1.219-1.015-1.592-1.566-.56-1.175-.56-1.871c0-.638.167-1.213.501-1.726s.806-.953 1.415-1.32 1.356-.652 2.241-.856 1.867-.304 2.948-.304a19 19 0 0 1 2.492.174c.875.116 1.754.295 2.639.537s1.745.546 2.58.914 1.607.793 2.315 1.276v-8.672c-1.435-.542-3.003-.943-4.703-1.204s-3.651-.392-5.853-.392zm-20.214 0H51.8v7.627h11.944v33.961h9.508V82.477h12.002V74.85z" fill="#fff"/></svg>