<svg xmlns="http://www.w3.org/2000/svg" viewBox="0 0 1000 1000" fill-rule="evenodd" xmlns:v="https://vecta.io/nano"><circle fill="#142239" cx="500" cy="500" r="468"/><path d="M752.223 43c-4.21.133-8.371 1.581-11.751 4.099l-442.28 329.85c-2.787 2.079-5.038 4.872-6.479 8.04s-2.071 6.703-1.809 10.174a20.89 20.89 0 0 0 3.31 9.788c1.898 2.915 4.542 5.339 7.608 6.976l190.101 101.473-286.643 412.354c-13.991 24.396 9.052 40.212 29.958 28.06l558.017-448.741a20.85 20.85 0 0 0 6.107-8.095 20.89 20.89 0 0 0-1.828-19.595c-1.889-2.845-4.49-5.211-7.499-6.819l-181.588-97.01L771.012 73.712a20.92 20.92 0 0 0 2.528-10.473 20.93 20.93 0 0 0-3.049-10.332c-1.895-3.097-4.618-5.681-7.807-7.409s-6.836-2.596-10.46-2.499h0z" fill="#ebf92f"/></svg>