<svg xmlns="http://www.w3.org/2000/svg" width="160" height="160" viewBox="0 0 160 160" fill="none" fill-rule="evenodd" xmlns:v="https://vecta.io/nano"><path d="M0 0h160v160H0z"/><g fill-rule="nonzero"><g fill="#fff"><path d="M132.44 62.077c-.244-5.38.489-10.148-1.956-14.183C124.617 37.869 109.948 32 80.611 32v.856H80h.611V32c-29.337 0-44.739 5.869-50.607 16.017-2.323 4.157-2.078 8.803-2.445 14.183-.244 4.279-2.2 8.803-1.345 13.694.978 6.358 1.345 12.716 2.323 18.584.733 4.768 7.334 8.803 7.945 13.327 1.711 12.471 14.669 18.218 44.006 18.218V127h-.611.733v-.978c29.337 0 41.805-5.746 43.395-18.218.611-4.646 6.723-8.559 7.457-13.327.978-5.869 1.345-12.227 2.323-18.584.856-4.891-1.1-9.537-1.345-13.816z"/><path d="M80.243 66.556c5.234.122 8.885 3.419 12.294 6.472 4.017 3.541 10.833 5.983 13.632 9.036s6.451 6.105 7.79 10.868 1.704 10.868 1.704 12.455.852 1.221 3.286 0c5.721-2.809 12.05-10.379 12.05-10.379-.73 4.762-6.938 9.036-7.547 13.554C121.993 121.017 109.943 127 80.122 127H80h.73"/><path d="M99.475 57.031c1.095 3.785 4.99 16.607-2.556 12.333 0 0 3.165 1.832 5.112 8.792 2.069 6.96 7.06 7.815 7.06 7.815s8.155 1.587 14.241-3.663c5.112-4.396 5.964-12.211 3.773-18.194-2.191-5.861-6.086-7.693-11.807-8.914-5.721-1.343-17.162-2.442-15.823 1.832h0z"/></g><circle fill="#142239" cx="113" cy="71" r="11"/><g fill="#fff"><circle cx="111.5" cy="67.5" r="2.5"/><path d="M80.88 67c-5.16.121-9 3.394-12.48 6.424-3.96 3.515-10.92 5.939-13.68 8.97s-6.48 6.061-7.8 10.788-1.8 10.788-1.8 12.364.24 1.697-3.24 0C36.24 102.879 30 95.242 30 95.242c.72 4.727 6.84 8.97 7.44 13.455C39.12 121.061 51 127 80.4 127h.6"/></g><g fill="#142239"><path d="M109.339 86.896C103.484 79.704 94.092 73 81.04 73h-.122c-13.051 0-22.443 6.704-28.298 13.896-6.099 7.435-5.611 10.361-5.611 17.431 0 25.597 9.026 18.284 15.003 21.453 6.099 3.047 12.441 2.072 18.906 2.072h.122c6.587 0 12.807.853 18.906-2.194 5.977-3.047 15.003 4.51 15.003-21.087.122-7.07.488-10.239-5.611-17.674h0z" opacity=".2"/><g opacity=".5"><path d="M80.571 79S79.714 90.707 78 93l3.184-.724L80.571 79z"/><path d="M81.429 79S82.286 90.707 84 93l-3.184-.724L81.429 79z"/></g><path d="M72.197 76.871C71.015 73.903 75.268 69.129 82 69c6.732 0 10.985 4.774 9.803 7.871S86.37 80.871 82 81c-4.252-.129-8.622-1.032-9.803-4.129h0z" opacity=".8"/><path d="M81.558 79.998c0-.461 4.212-.577 6.442-1.961 0 0-4.584 1.384-5.575.807-.991-.461-1.239-1.845-1.239-1.845s-.372 1.384-1.115 1.845c-.867.461-6.071-.807-6.071-.807l6.938 1.961c0 .346-.124 1.499-.124 2.307l.496 10.61c.743 1.038.496-7.727.496-10.61l-.248-2.307h0z" opacity=".6"/><path d="M82.045 96c2.057 0 5.688 1.333 8.955 3.444C87.854 96.222 84.102 94 82.045 94c-2.178 0-6.777 2.444-10.045 6 3.389-2.444 7.745-4 10.045-4z" stroke-opacity=".6" stroke="#142239" stroke-width="2.077"/><g fill-opacity=".4"><path d="M80.513 117.109c-4.631 0-9.14-1.498-13.283-2.622-.853-.25-1.706.375-2.559.125-7.677-2.497-13.892-6.743-17.67-12.113v1.249c0 26.223 9.018 18.856 14.989 21.978 6.093 3.122 12.43 2.123 18.889 2.123H81c6.581 0 12.796.874 18.889-2.248 5.971-3.122 14.989 4.495 14.989-21.728 0-.999 0-1.998.122-2.872-3.534 5.869-9.993 10.489-18.036 13.237-.731.25-2.437-.375-3.168-.25-4.387 1.498-8.287 3.122-13.283 3.122h0z"/><path d="M68.935 102.998s-3.047 9.366-.975 13.486l-2.803-1.249s2.072-9.49 3.778-12.238h0zm24.129 0s3.047 9.366.975 13.486l2.803-1.249s-2.194-9.49-3.778-12.238z"/></g><ellipse transform="matrix(.968322 -.249706 .249706 .968322 75.870541 74.547965)" cx="6.056" cy="1.507" rx="1" ry="1.417"/><ellipse transform="matrix(.955095 .296299 -.296299 .955095 76.543307 72.789055)" cx=".901" cy="1.512" rx="1" ry="1.427"/><circle cx="48" cy="71" r="11"/></g><circle fill="#fff" cx="49.5" cy="67.5" r="2.5"/><g fill="#142239"><path d="M42.434 49.706s-3.274 9.08-10.551 12.883c0 0 11.4-1.35 10.551-12.883zm76.526 0s3.274 9.08 10.551 12.883c0 0-11.4-1.35-10.551-12.883zM98.221 66.638s-7.155-7.607-16.736-7.853c-.121 0 .243 0 .121 0s.121 0 .121 0c-9.702.245-16.736 7.853-16.736 7.853 8.368-5.89 15.523-5.767 16.736-5.767-.121 0 8.126-.123 16.494 5.767h0zm-8.368-15.951s-3.638-5.153-8.489-5.276h.243c-3.638.123-8.368 5.276-8.368 5.276 4.123-4.049 8.368-3.926 8.368-3.926s4.002-.123 8.247 3.926zM47.891 88.356s-5.7 2.822-9.823 1.104h-.121c-3.638-2.086-5.457-8.344-5.457-8.344s3.638 11.043 15.402 7.239h0zm66.46 0s5.7 2.822 9.823 1.104c4.851-2.086 5.579-8.344 5.579-8.344s-3.638 11.043-15.402 7.239h0zM54.44 49.092c3.153-.613 8.368-.736 12.491.613 5.215 1.84.97 8.589 2.062 8.957S71.54 54 81.243 54.491c9.823.491 10.915 4.908 12.249 4.172s-1.334-12.27 13.34-9.571c0 0-15.402-4.172-14.674 7.117 0 0-8.853-6.871-21.223-.736.121 0 3.274-10.552-16.494-6.38h0zm53.726 0c.243 0 .364.123.485.123s-.121-.123-.485-.123z" fill-opacity=".1"/><path d="M50.196 34S37.098 50.687 35.157 57.067c-1.94 6.503-3.396 33.129-5.094 36.933L24 67.742 35.157 40.38 50.196 34zm61.609 0s13.098 16.687 15.038 23.067c1.94 6.503 3.396 33.129 5.094 36.933L138 67.742 126.843 40.38 111.804 34z" fill-opacity=".4"/></g><path d="M110.042 34.443s13.999 11.915 18.102 25.673 2.414 30.463 5.551 32.552c4.465 2.948 9.534-14.618 11.223-16.46 2.655-2.948 11.464-10.441 12.068-11.792s-17.86-21.865-25.946-25.918c-9.775-4.668-21.843-5.036-20.998-4.054z" fill="#a1a7af"/><path d="M122 42s16.584 20.929 16.342 47L145 75.606c-.121 0-5.932-17.102-23-33.606h0z" fill-opacity=".3" fill="#142239"/><path d="M49.958 34.443S35.959 46.358 31.856 60.116s-2.414 30.463-5.551 32.552c-4.465 2.948-9.534-14.618-11.223-16.46-2.655-2.948-11.464-10.441-12.068-11.792S20.875 42.55 28.96 38.497c9.775-4.668 21.843-5.036 20.998-4.054h0z" fill="#a1a8af"/><path d="M38 42S21.328 62.929 21.571 89L15 75.606S20.841 58.504 38 42z" fill-opacity=".2" fill="#142239"/><path d="M29 90.663s1.219 6.616 3.17 8.698.61-1.593.61-1.593-2.073-1.103-1.707-9.556S29 90.663 29 90.663h0zm104 0s-1.219 6.616-3.17 8.698-.61-1.593-.61-1.593 2.073-1.103 1.707-9.556 2.073 2.45 2.073 2.45h0z" fill="#fff"/><g fill="#142239" fill-opacity=".6"><circle cx="68.495" cy="86" r="1"/><circle cx="62.832" cy="92" r="1"/><circle cx="60.985" cy="86" r="1"/><circle cx="92.505" cy="86" r="1"/><circle cx="98.168" cy="92" r="1"/><circle cx="100.015" cy="86" r="1"/></g></g></svg>